<svg width="15" height="15" fill="none" xmlns="http://www.w3.org/2000/svg"><path d="M12.68 1.524h-1.196V.328h-.796v1.196H4.311V.328h-.796v1.196H2.32A1.995 1.995 0 00.328 3.516v9.165c0 1.098.894 1.992 1.993 1.992H12.68a1.995 1.995 0 001.993-1.992V3.516a1.995 1.995 0 00-1.993-1.992zm1.195 11.156c0 .659-.536 1.195-1.195 1.195H2.32a1.196 1.196 0 01-1.195-1.195V5.508h12.75v7.172zm0-7.969H1.125V3.516c0-.66.536-1.196 1.196-1.196h1.195v.797h.796V2.32h6.375v.797h.797V2.32h1.196c.659 0 1.195.535 1.195 1.195V4.71z" fill="#CDCDCD"/></svg>