<svg width="15" height="15" viewBox="0 0 15 15" fill="none" xmlns="http://www.w3.org/2000/svg">
<path d="M12.68 1.52379H11.4844V0.328125H10.6875V1.52379H4.3125V0.328125H3.51563V1.52379H2.32067C1.22204 1.52379 0.328125 2.41771 0.328125 3.51633V12.6808C0.328125 13.7794 1.22204 14.6733 2.32067 14.6733H12.68C13.7787 14.6733 14.6726 13.7794 14.6726 12.6808V5.50817V4.71129V3.51563C14.6719 2.417 13.778 1.52379 12.68 1.52379ZM13.875 12.68C13.875 13.3388 13.3388 13.875 12.68 13.875H2.32067C1.66121 13.875 1.125 13.3388 1.125 12.68V5.50817H13.875V12.68ZM13.875 4.71129H1.125V3.51563C1.125 2.85617 1.66121 2.31996 2.32067 2.31996H3.51633V3.11683H4.3125V2.32067H10.6875V3.11754H11.4844V2.32067H12.68C13.3388 2.32067 13.875 2.85617 13.875 3.51563V4.71129Z" fill="#CDCDCD"/>
</svg>
